<svg width="144" height="56" viewBox="0 0 144 56" fill="none" xmlns="http://www.w3.org/2000/svg" class="logo"><path d="M89.9868 22.4463C88.6167 22.4463 86.9241 23.5746 86.0779 24.9045V22.6881H83.5391V35.7851H86.0779V27.1209C86.8032 25.7911 88.657 25.0657 90.4301 25.0657V22.5269C90.2689 22.4463 90.0674 22.4463 89.9868 22.4463Z" fill="#F1F1F1"></path><path d="M98.4497 22.4463C97.0796 22.4463 95.387 23.5746 94.5408 24.9045V22.6881H92.002V35.7851H94.5408V27.1209C95.2661 25.7911 97.1199 25.0657 98.893 25.0657V22.5269C98.7318 22.4463 98.5303 22.4463 98.4497 22.4463Z" fill="#F1F1F1"></path><path fill-rule="evenodd" clip-rule="evenodd" d="M78.7033 24.7836V22.6881V22.6478H81.2421V35.7448H78.7033V33.6493C77.7764 34.9388 76.0839 35.9866 73.7466 35.9866C69.8779 35.9866 67.2988 32.8836 67.2988 29.2164C67.2988 25.5493 70.16 22.4463 73.7466 22.4463C76.0033 22.4463 77.6555 23.3732 78.7033 24.7836ZM69.6361 29.2164C69.6361 31.9164 71.7317 33.8911 74.1093 33.8911C76.9302 33.8911 78.8645 31.7955 78.8645 29.2164C78.8645 26.6373 76.9302 24.5418 74.1093 24.5418C71.6108 24.5418 69.6361 26.6373 69.6361 29.2164Z" fill="#F1F1F1"></path><path fill-rule="evenodd" clip-rule="evenodd" d="M110.942 24.7836V22.6881V22.6478H113.48V35.7448H110.942V33.6493C110.015 34.9388 108.322 35.9866 105.985 35.9866C102.116 35.9866 99.5371 32.8836 99.5371 29.2164C99.5371 25.5493 102.398 22.4463 105.985 22.4463C108.242 22.4463 109.894 23.3732 110.942 24.7836ZM101.874 29.2164C101.874 31.9164 103.97 33.8911 106.348 33.8911C109.168 33.8911 111.103 31.7955 111.103 29.2164C111.103 26.6373 109.168 24.5418 106.348 24.5418C103.849 24.5418 101.874 26.6373 101.874 29.2164Z" fill="#F1F1F1"></path><path fill-rule="evenodd" clip-rule="evenodd" d="M52.1465 35.7852V18.2554H54.6853V24.824C55.7331 23.4136 57.3853 22.4867 59.642 22.4867C63.2689 22.4867 66.0898 25.5897 66.0898 29.2569C66.0898 32.924 63.5107 36.027 59.642 36.027C57.3047 36.027 55.6122 34.9793 54.6853 33.6897V35.7852H52.1465ZM59.239 24.5419C56.4181 24.5419 54.4838 26.6375 54.4838 29.2166C54.4838 31.836 56.4181 33.8912 59.239 33.8912C61.6569 33.8912 63.7122 31.9166 63.7122 29.2166C63.7122 26.6375 61.7375 24.5419 59.239 24.5419Z" fill="#F1F1F1"></path><path fill-rule="evenodd" clip-rule="evenodd" d="M136.571 22.4463C140.077 22.4463 143.099 25.2672 143.14 29.0552C143.14 29.357 143.102 29.6401 143.066 29.9172C143.049 30.0472 143.032 30.1758 143.019 30.3045H132.259C132.743 32.6821 134.757 33.8911 136.531 33.8911C138.707 33.8911 139.795 32.6821 140.198 32.0373H142.898C141.487 34.9791 138.747 36.0269 136.531 36.0269C132.541 36.0269 129.801 32.8836 129.801 29.2164C129.801 25.3478 132.823 22.4463 136.571 22.4463ZM140.762 28.3299C140.52 26.3955 138.747 24.6224 136.49 24.6224C134.395 24.6224 132.46 26.2343 132.259 28.3299H140.762Z" fill="#F1F1F1"></path><path fill-rule="evenodd" clip-rule="evenodd" d="M126.134 24.7836V22.7284H128.632V33.8508C128.632 39.2508 125.449 41.2254 121.701 41.2254C118.517 41.2254 116.14 39.3717 115.374 37.397H118.477C118.88 38.1627 120.21 39.0896 121.902 39.0896C124.038 39.0896 126.174 37.7194 126.174 34.5761V33.6493C125.005 35.0597 123.192 35.906 121.298 35.906C117.711 35.906 114.77 32.803 114.77 29.1761C114.77 25.5493 117.671 22.4463 121.298 22.4463C123.152 22.4463 124.925 23.212 126.134 24.7836ZM117.107 29.1761C117.107 31.5941 119.162 33.7702 121.701 33.7702C124.24 33.7702 126.335 31.6343 126.295 29.1761C126.295 26.7582 124.24 24.5821 121.701 24.5821C119.162 24.5821 117.107 26.7179 117.107 29.1761Z" fill="#F1F1F1"></path><rect x="0.322266" y="0.161133" width="5.80883" height="2.21488" fill="#F1F1F1"></rect><rect x="0.322266" y="9.0625" width="5.80883" height="2.21488" fill="#F1F1F1"></rect><rect x="0.322266" y="17.9639" width="5.80883" height="2.21488" fill="#F1F1F1"></rect><rect x="0.322266" y="26.8652" width="5.80883" height="2.21488" fill="#F1F1F1"></rect><rect x="0.322266" y="35.7661" width="5.80883" height="2.21488" fill="#F1F1F1"></rect><rect x="0.322266" y="44.7095" width="5.80883" height="2.21488" fill="#F1F1F1"></rect><rect x="0.322266" y="53.6108" width="5.80883" height="2.21488" fill="#F1F1F1"></rect><rect x="6.13086" y="4.63281" width="5.80883" height="2.21488" fill="#F1F1F1"></rect><rect x="6.13086" y="22.4351" width="5.80883" height="2.21488" fill="#F1F1F1"></rect><rect x="6.13086" y="31.3364" width="5.80883" height="2.21488" fill="#F1F1F1"></rect><rect x="6.13086" y="40.2378" width="5.80883" height="2.21488" fill="#F1F1F1"></rect><rect x="6.13086" y="49.1392" width="5.80883" height="2.21488" fill="#F1F1F1"></rect><rect x="11.9395" y="0.161133" width="5.80883" height="2.21488" fill="#F1F1F1"></rect><rect x="11.9395" y="9.0625" width="5.80883" height="2.21488" fill="#F1F1F1"></rect><rect x="11.9395" y="17.9639" width="5.80883" height="2.21488" fill="#F1F1F1"></rect><rect x="11.9395" y="26.8652" width="5.80883" height="2.21488" fill="#F1F1F1"></rect><rect x="11.9395" y="35.7661" width="5.80883" height="2.21488" fill="#F1F1F1"></rect><rect x="11.9395" y="44.7095" width="5.80883" height="2.21488" fill="#F1F1F1"></rect><rect x="11.9395" y="53.6108" width="5.80883" height="2.21488" fill="#F1F1F1"></rect><rect x="17.748" y="4.63281" width="5.80883" height="2.21488" fill="#F1F1F1"></rect><rect x="17.748" y="22.4351" width="5.80883" height="2.21488" fill="#F1F1F1"></rect><rect x="17.748" y="31.3364" width="5.80883" height="2.21488" fill="#F1F1F1"></rect><rect x="17.748" y="40.2378" width="5.80883" height="2.21488" fill="#F1F1F1"></rect><rect x="17.748" y="49.1392" width="5.80883" height="2.21488" fill="#F1F1F1"></rect><rect x="23.5156" y="0.161133" width="5.80883" height="2.21488" fill="#F1F1F1"></rect><rect x="23.5156" y="9.0625" width="5.80883" height="2.21488" fill="#F1F1F1"></rect><rect x="23.5156" y="17.9639" width="5.80883" height="2.21488" fill="#F1F1F1"></rect><rect x="23.5156" y="26.8652" width="5.80883" height="2.21488" fill="#F1F1F1"></rect><rect x="23.5156" y="35.7661" width="5.80883" height="2.21488" fill="#F1F1F1"></rect><rect x="23.5156" y="44.7095" width="5.80883" height="2.21488" fill="#F1F1F1"></rect><rect x="23.5156" y="53.6108" width="5.80883" height="2.21488" fill="#F1F1F1"></rect><rect x="29.3242" y="4.63281" width="5.80883" height="2.21488" fill="#F1F1F1"></rect><rect x="6.13086" y="13.5342" width="5.80883" height="2.21488" fill="#F1F1F1"></rect><rect x="17.748" y="13.5342" width="5.80883" height="2.21488" fill="#F1F1F1"></rect><rect x="29.3242" y="13.5342" width="5.80883" height="2.21488" fill="#F1F1F1"></rect><rect x="29.3242" y="22.4351" width="5.80883" height="2.21488" fill="#F1F1F1"></rect><rect x="29.3242" y="31.3364" width="5.80883" height="2.21488" fill="#F1F1F1"></rect><rect x="29.3242" y="40.2378" width="5.80883" height="2.21488" fill="#F1F1F1"></rect><rect x="29.3242" y="49.1392" width="5.80883" height="2.21488" fill="#F1F1F1"></rect><rect x="35.1328" y="9.0625" width="5.80883" height="2.21488" fill="#F1F1F1"></rect><rect x="35.1328" y="17.9639" width="5.80883" height="2.21488" fill="#F1F1F1"></rect><rect x="35.1328" y="35.7661" width="5.80883" height="2.21488" fill="#F1F1F1"></rect><rect x="35.1328" y="44.7095" width="5.80883" height="2.21488" fill="#F1F1F1"></rect></svg>